<mxfile host="app.diagrams.net" modified="2023-04-28T17:50:14.466Z" agent="Mozilla/5.0 (Macintosh; Intel Mac OS X 10_15_7) AppleWebKit/537.36 (KHTML, like Gecko) Chrome/111.0.0.0 Safari/537.36" version="21.2.3" etag="wNqvvAzk_Q-4fHSbDuws" type="github">
  <diagram name="Page-1" id="wU0jfPn3ALxyLgkfHyvb">
    <mxGraphModel>
      <root>
        <mxCell id="0" />
        <mxCell id="1" parent="0" />
      </root>
    </mxGraphModel>
  </diagram>
</mxfile>
